# xmcd
#
# Track frame offsets:
#	150
#	13691
#	30096
#	42641
#	54539
#	67663
#	80101
#	95221
#	108218
#	120755
#	134673
#	148905
#	159675
#	174322
#	186886
#	201763
#	214884
#	228045
#	238446
#	251501
#	265624
#	278761
#	292771
#	307191
#	320632
#	332571
#
# Disc length: 4677 seconds
#
# Revision: 4
# Processed by: cddbd v1.5.2PL0 Copyright (c) Steve Scherf et al.
# Submitted via: EZCDAudioConverter 7.0.9.1
#
DISCID=7a12431a
DTITLE=Various Artist - Triomphes du Blues 10, Piano Blues
DYEAR=2001
DGENRE=Blues
TTITLE0=Alex Moore - They may not be my toes - 1929
TTITLE1=Saint-Louis Jimmy Oden - Patrol wagon blues - 1932
TTITLE2=Peetie Wheaststraw - Slave man blues - 1935
TTITLE3=Jimmy Gordon - Beer drinkin' woman - 1941
TTITLE4=Little Brother Montgomery - Vicksburg blues - 1935
TTITLE5=Curtis Jones - Solid jive - 1940
TTITLE6=Walter Davis - Let me in your saddle - 1939
TTITLE7=Eddie Boyd - Blue monday blues - 1947
TTITLE8=Roosevelt Sykes - Roosevelt blues - 1929
TTITLE9=Cow Cow Davenport and Dora Carr - Cow cow blues - 1928
TTITLE10=Pinetop Smith - Pinetop's boogie woogie - 1928
TTITLE11=Albert Ammons - Shout for joy - 1939
TTITLE12=Speckled Red - Saint-Louis stomp - 1938
TTITLE13=Jimmy Yancey - Yancey stomp - 1939
TTITLE14=Montana Taylor - Detroit rocks - 1929
TTITLE15=Romeo Nelson - Head rag hop - 1929
TTITLE16=Big Maceo - Chicago breakdown - 1945
TTITLE17=Cecil Gant - Cecil boogie - 1944
TTITLE18=Pete Johnson - Dive bomber - 1944
TTITLE19=Meade Lux Lewis - Honky tonk train blues - 1927
TTITLE20=Count Basie - How long blues - 1938
TTITLE21=Errol Garner - Blues i can't forget - 1944
TTITLE22=Sammy Price - Boogin' with Big Sid - 1945
TTITLE23=Duke Ellington - C Jam blues (avec Billy Strayhorn) - 1950
TTITLE24=Art Tatum - Aunt Hagar's blues - 1949
TTITLE25=Meade Lux Lewis-Albert Ammons-Pete Johnson - Boogie woogie prayer - 1
TTITLE25=948
EXTD=
EXTT0=
EXTT1=
EXTT2=
EXTT3=
EXTT4=
EXTT5=
EXTT6=
EXTT7=
EXTT8=
EXTT9=
EXTT10=
EXTT11=
EXTT12=
EXTT13=
EXTT14=
EXTT15=
EXTT16=
EXTT17=
EXTT18=
EXTT19=
EXTT20=
EXTT21=
EXTT22=
EXTT23=
EXTT24=
EXTT25=
PLAYORDER=
